<svg width="800" height="800" xmlns="http://www.w3.org/2000/svg">

 <g>
  <title>background</title>
  <rect fill="none" id="canvas_background" height="802" width="802" y="-1" x="-1"/>
 </g>
 <g>
  <title>Layer 1</title>
  <g transform="rotate(-45 396.4823608398436,401.48229980468733) " id="svg_1">
   <path fill="#007fff" id="svg_2" d="m641.48233,197.88231l0,-21c0,-11.3 -9.1,-20.4 -20.4,-20.4l-21,0c-90.4,0 -168.5,54 -203.6,131.5c-35.1,-77.5 -113.2,-131.5 -203.6,-131.5l-21,0c-11.3,0 -20.4,9.1 -20.4,20.4l0,21c0,90.4 54,168.5 131.5,203.6c-77.5,35.1 -131.5,113.2 -131.5,203.6l0,21c0,11.3 9.1,20.4 20.4,20.4l21,0c90.4,0 168.5,-54 203.6,-131.5c35.1,77.5 113.2,131.5 203.6,131.5l21,0c11.3,0 20.4,-9.1 20.4,-20.4l0,-21c0,-59.7 -23.2,-115.8 -65.4,-157.9c-19.4,-19.4 -41.6,-34.7 -65.8,-45.7c24.2,-11 46.4,-26.3 65.8,-45.6c42.2,-42.2 65.4,-98.3 65.4,-158zm-449.2,0l0,-0.6l0.6,0c100.7,0 182.5,81.9 182.5,182.6l0,0.6l-0.6,0c-100.6,0 -182.5,-81.9 -182.5,-182.6zm183.2,225.2c0,100.7 -81.9,182.5 -182.5,182.5l-0.6,0l0,-0.6c0,-100.7 81.9,-182.5 182.6,-182.5l0.6,0l0,0.6l-0.1,0zm225.2,182l0,0.6l-0.6,0c-100.7,0 -182.5,-81.9 -182.5,-182.5l0,-0.7l0.6,0c48.8,0 94.6,19 129.1,53.5c34.4,34.5 53.4,80.3 53.4,129.1zm-182.6,-224.6l-0.6,0l0,-0.6c0,-100.7 81.9,-182.5 182.5,-182.5l0.6,0l0,0.6c0,48.8 -19,94.6 -53.5,129.1c-34.4,34.4 -80.2,53.4 -129,53.4z"/>
  </g>
  <ellipse stroke="#56aaff" ry="74.66701" rx="134.00062" id="svg_8" cy="403.33333" cx="239.99925" stroke-width="10" fill="#007fff"/>
  <ellipse transform="rotate(-89.53226470947266 398.6666564941406,563.3340454101562) " stroke="#56aaff" ry="74.66701" rx="134.00062" id="svg_9" cy="563.33406" cx="398.66664" stroke-width="10" fill="#007fff"/>
  <ellipse transform="rotate(179.1531982421875 557.3340454101562,400.66662597656244) " stroke="#56aaff" ry="74.66701" rx="134.00062" id="svg_10" cy="400.66665" cx="557.33404" stroke-width="10" fill="#007fff"/>
  <ellipse ry="33.33349" rx="33.33349" id="svg_11" cy="399.33331" cx="396.66664" fill-opacity="null" stroke-width="10" fill="#007fff"/>
  <ellipse transform="rotate(-90 397.3332824707031,241.9992523193359) " stroke="#56aaff" ry="74.66701" rx="134.00062" id="svg_16" cy="241.99925" cx="397.3333" stroke-width="10" fill="#007fff"/>
  <ellipse ry="50" rx="50" id="svg_14" cy="400" cx="400" stroke-width="10" stroke="#56aaff" fill="#ffffff"/>
 </g>
</svg>