<svg width="800" height="800" xmlns="http://www.w3.org/2000/svg">
 <g>
  <rect x="-1" y="-1" width="1602.02812" height="1602.02812" id="canvas_background" fill="none"/>
 </g>

 <g>
  <g id="svg_1" transform="rotate(-45 396.4823608398434,401.48236083984364) ">
   <path d="m641.48233,197.88231l0,-21c0,-11.3 -9.1,-20.4 -20.4,-20.4l-21,0c-90.4,0 -168.5,54 -203.6,131.5c-35.1,-77.5 -113.2,-131.5 -203.6,-131.5l-21,0c-11.3,0 -20.4,9.1 -20.4,20.4l0,21c0,90.4 54,168.5 131.5,203.6c-77.5,35.1 -131.5,113.2 -131.5,203.6l0,21c0,11.3 9.1,20.4 20.4,20.4l21,0c90.4,0 168.5,-54 203.6,-131.5c35.1,77.5 113.2,131.5 203.6,131.5l21,0c11.3,0 20.4,-9.1 20.4,-20.4l0,-21c0,-59.7 -23.2,-115.8 -65.4,-157.9c-19.4,-19.4 -41.6,-34.7 -65.8,-45.7c24.2,-11 46.4,-26.3 65.8,-45.6c42.2,-42.2 65.4,-98.3 65.4,-158zm-449.2,0l0,-0.6l0.6,0c100.7,0 182.5,81.9 182.5,182.6l0,0.6l-0.6,0c-100.6,0 -182.5,-81.9 -182.5,-182.6zm183.2,225.2c0,100.7 -81.9,182.5 -182.5,182.5l-0.6,0l0,-0.6c0,-100.7 81.9,-182.5 182.6,-182.5l0.6,0l0,0.6l-0.1,0zm225.2,182l0,0.6l-0.6,0c-100.7,0 -182.5,-81.9 -182.5,-182.5l0,-0.7l0.6,0c48.8,0 94.6,19 129.1,53.5c34.4,34.5 53.4,80.3 53.4,129.1zm-182.6,-224.6l-0.6,0l0,-0.6c0,-100.7 81.9,-182.5 182.5,-182.5l0.6,0l0,0.6c0,48.8 -19,94.6 -53.5,129.1c-34.4,34.4 -80.2,53.4 -129,53.4z" id="svg_2" fill="#007fff"/>
  </g>
  <ellipse fill="none" stroke-width="20" cx="400" cy="402.50005" id="svg_5" rx="380" ry="380" stroke="#3f007f"/>
 </g>
</svg>